<?xml version="1.0" encoding="UTF-8" standalone="no"?>
<!-- Generated by IcoMoon.io -->

<svg
   version="1.1"
   width="1024"
   height="1024"
   viewBox="0 0 1024 1024"
   id="svg33"
   sodipodi:docname="arrow-right2.svg"
   inkscape:version="1.1.1 (3bf5ae0d25, 2021-09-20)"
   xmlns:inkscape="http://www.inkscape.org/namespaces/inkscape"
   xmlns:sodipodi="http://sodipodi.sourceforge.net/DTD/sodipodi-0.dtd"
   xmlns="http://www.w3.org/2000/svg"
   xmlns:svg="http://www.w3.org/2000/svg">
  <defs
     id="defs37" />
  <sodipodi:namedview
     id="namedview35"
     pagecolor="#ffffff"
     bordercolor="#666666"
     borderopacity="1.0"
     inkscape:pageshadow="2"
     inkscape:pageopacity="0.0"
     inkscape:pagecheckerboard="0"
     showgrid="false"
     inkscape:zoom="0.76464844"
     inkscape:cx="512"
     inkscape:cy="512"
     inkscape:window-width="1920"
     inkscape:window-height="1001"
     inkscape:window-x="-9"
     inkscape:window-y="-9"
     inkscape:window-maximized="1"
     inkscape:current-layer="svg33" />
  <title
     id="title24" />
  <g
     id="icomoon-ignore" />
  <path
     style="color:#000000;fill:#02f7e9;stroke-linecap:round;stroke-linejoin:round;stroke-miterlimit:10;-inkscape-stroke:none"
     d="m 609.05469,228.28516 a 25.6,25.6 0 0 0 -11.47657,6.625 25.6,25.6 0 0 0 0,36.20507 L 838.46289,512 597.57812,752.88477 a 25.6,25.6 0 0 0 0,36.20312 25.6,25.6 0 0 0 36.20313,0 L 892.76953,530.10156 a 25.60256,25.60256 0 0 0 0,-36.20508 L 633.78125,234.91016 a 25.6,25.6 0 0 0 -24.72656,-6.625 z"
     id="path27" />
  <path
     style="color:#000000;fill:#02f7e9;stroke-linecap:round;stroke-linejoin:round;stroke-miterlimit:10;-inkscape-stroke:none"
     d="M 469.75977,486.40039 A 25.6,25.6 0 0 0 444.16016,512 25.6,25.6 0 0 0 469.75977,537.59961 H 867.41211 A 25.6,25.6 0 0 0 893.01367,512 25.6,25.6 0 0 0 867.41211,486.40039 Z"
     id="path29" />
  <path
     style="color:#000000;fill:#02f7e9;stroke-linecap:round;stroke-linejoin:round;stroke-miterlimit:10;-inkscape-stroke:none"
     d="M 149.33203,486.40039 A 25.6,25.6 0 0 0 123.73242,512 25.6,25.6 0 0 0 149.33203,537.59961 H 297.38672 A 25.6,25.6 0 0 0 322.98633,512 25.6,25.6 0 0 0 297.38672,486.40039 Z"
     id="path31" />
</svg>
