<svg aria-hidden="true" style="position: absolute; width: 0; height: 0; overflow: hidden;" version="1.1" xmlns="http://www.w3.org/2000/svg" xmlns:xlink="http://www.w3.org/1999/xlink">
<defs>
<symbol id="icon-arrow-right2" viewBox="0 0 32 32">
<path d="M19.033 7.134c-0.141 0.039-0.262 0.111-0.359 0.207v0c-0.145 0.145-0.234 0.345-0.234 0.566s0.090 0.421 0.234 0.566l7.528 7.528-7.528 7.528c-0.145 0.145-0.234 0.345-0.234 0.566s0.090 0.421 0.234 0.566v0c0.145 0.145 0.345 0.234 0.566 0.234s0.421-0.090 0.566-0.234l8.093-8.093c0.145-0.145 0.234-0.345 0.234-0.566s-0.090-0.421-0.234-0.566l-8.093-8.093c-0.145-0.145-0.345-0.234-0.566-0.234-0.074 0-0.145 0.010-0.213 0.029l0.006-0.001z"></path>
<path d="M14.68 15.2c-0.442 0-0.8 0.358-0.8 0.8v0c0 0.442 0.358 0.8 0.8 0.8h12.427c0 0 0 0 0 0 0.442 0 0.8-0.358 0.8-0.8v0c0-0.442-0.358-0.8-0.8-0.8-0 0-0 0-0 0v0z"></path>
<path d="M4.667 15.2c-0.442 0-0.8 0.358-0.8 0.8v0c0 0.442 0.358 0.8 0.8 0.8h4.627c0.442 0 0.8-0.358 0.8-0.8v0c0-0.442-0.358-0.8-0.8-0.8v0z"></path>
</symbol>
</defs>
</svg>
